<svg width="120" height="120" viewBox="0 0 120 120" fill="none" xmlns="http://www.w3.org/2000/svg">
  <defs>
    <!-- Use generous bounds so glow never clips -->
    <filter id="moonGlow" x="-50%" y="-50%" width="200%" height="200%" color-interpolation-filters="sRGB">
      <feGaussianBlur stdDeviation="2.5" />
    </filter>
    <filter id="starGlow" x="-50%" y="-50%" width="200%" height="200%" color-interpolation-filters="sRGB">
      <feGaussianBlur stdDeviation="2" />
    </filter>
  </defs>

  <!-- Glows (behind) -->
  <g id="glows">
    <g id="glow-moon" filter="url(#moonGlow)" opacity="0.18">
      <path d="M87.1025 36.5002C91.9467 36.5002 96.3921 38.3601 99.7783 41.4175C97.4452 35.0114 91.3805 30.5002 84.3861 30.5002C76.1356 30.5002 69.4541 37.1817 69.4541 45.4323C69.4541 53.6828 76.1356 60.3643 84.3861 60.3643C91.3805 60.3643 97.4452 55.8531 99.7783 49.447C96.3921 52.5044 91.9467 54.3643 87.1025 54.3643C82.3092 54.3643 77.9843 52.4345 74.8663 49.3174C71.7492 46.2003 69.8194 41.8754 69.8194 37.0821C69.8194 32.2887 71.7492 27.9638 74.8663 24.8467C77.9843 21.7296 82.3092 19.7998 87.1025 19.7998V36.5002Z" fill="#8B5CF6" />
    </g>

    <g id="twinkle-stars" filter="url(#starGlow)" opacity="0.22">
      <path d="M66.0111 21.3152C66.0111 21.3152 66.0111 25.1485 62.1778 25.1485C66.0111 25.1485 66.0111 28.9818 66.0111 28.9818C66.0111 28.9818 66.0111 25.1485 69.8444 25.1485C66.0111 25.1485 66.0111 21.3152 66.0111 21.3152Z" fill="#2EC7A6" />
      <path d="M99.7155 37.6533C99.7155 37.6533 99.7155 41.4867 95.8822 41.4867C99.7155 41.4867 99.7155 45.32 99.7155 45.32C99.7155 45.32 99.7155 41.4867 103.549 41.4867C99.7155 41.4867 99.7155 37.6533 99.7155 37.6533Z" fill="#2EC7A6" />
      <path d="M81.0134 58.7861C81.0134 58.7861 81.0134 62.6195 77.18 62.6195C81.0134 62.6195 81.0134 66.4528 81.0134 66.4528C81.0134 66.4528 81.0134 62.6195 84.8467 62.6195C81.0134 62.6195 81.0134 58.7861 81.0134 58.7861Z" fill="#2EC7A6" />
    </g>
  </g>

  <!-- Stars (crisp) -->
  <g id="stars">
    <path d="M66.0111 21.3152C66.0111 21.3152 66.0111 25.1485 62.1778 25.1485C66.0111 25.1485 66.0111 28.9818 66.0111 28.9818C66.0111 28.9818 66.0111 25.1485 69.8444 25.1485C66.0111 25.1485 66.0111 21.3152 66.0111 21.3152Z" stroke="#2E7D6A" stroke-width="2.5" stroke-linecap="round" stroke-linejoin="round" />
    <path d="M99.7155 37.6533C99.7155 37.6533 99.7155 41.4867 95.8822 41.4867C99.7155 41.4867 99.7155 45.32 99.7155 45.32C99.7155 45.32 99.7155 41.4867 103.549 41.4867C99.7155 41.4867 99.7155 37.6533 99.7155 37.6533Z" stroke="#2E7D6A" stroke-width="2.5" stroke-linecap="round" stroke-linejoin="round" />
    <path d="M81.0134 58.7861C81.0134 58.7861 81.0134 62.6195 77.18 62.6195C81.0134 62.6195 81.0134 66.4528 81.0134 66.4528C81.0134 66.4528 81.0134 62.6195 84.8467 62.6195C81.0134 62.6195 81.0134 58.7861 81.0134 58.7861Z" stroke="#2E7D6A" stroke-width="2.5" stroke-linecap="round" stroke-linejoin="round" />
  </g>

  <!-- Moon (crisp) -->
  <g id="moon">
    <path d="M87.1025 36.5002C91.9467 36.5002 96.3921 38.3601 99.7783 41.4175C97.4452 35.0114 91.3805 30.5002 84.3861 30.5002C76.1356 30.5002 69.4541 37.1817 69.4541 45.4323C69.4541 53.6828 76.1356 60.3643 84.3861 60.3643C91.3805 60.3643 97.4452 55.8531 99.7783 49.447C96.3921 52.5044 91.9467 54.3643 87.1025 54.3643C82.3092 54.3643 77.9843 52.4345 74.8663 49.3174C71.7492 46.2003 69.8194 41.8754 69.8194 37.0821C69.8194 32.2887 71.7492 27.9638 74.8663 24.8467C77.9843 21.7296 82.3092 19.7998 87.1025 19.7998V36.5002Z" stroke="#2E7D6A" stroke-width="2.5" stroke-linecap="round" stroke-linejoin="round" />
  </g>

  <!-- Sleeping baby silhouette (crisp) -->
  <g id="baby">
    <path d="M56.8998 54.3643C56.8998 54.3643 59.7751 56.8332 59.7751 60.3643C59.7751 63.8953 56.8998 66.3643 56.8998 66.3643C56.8998 75.4262 49.5558 82.7702 40.4939 82.7702C39.0061 82.7702 37.5555 82.5712 36.1674 82.1928C31.7348 88.423 27.198 94.2736 21.5244 98.5185" stroke="#2E7D6A" stroke-width="2.5" stroke-linecap="round" stroke-linejoin="round" />
    <path d="M59.4633 98.5185C53.7898 94.2736 49.2529 88.423 44.8204 82.1928" stroke="#2E7D6A" stroke-width="2.5" stroke-linecap="round" stroke-linejoin="round" />
    <path d="M48.2435 57.5349C48.2435 57.5349 51.1188 55.066 51.1188 51.5349C51.1188 48.0039 48.2435 45.5349 48.2435 45.5349" stroke="#2E7D6A" stroke-width="2.5" stroke-linecap="round" stroke-linejoin="round" />
    <path d="M24.088 79.8947C19.5512 75.3579 16.7751 68.9847 16.7751 61.9271C16.7751 48.8302 27.3928 38.2125 40.4939 38.2125C47.0397 38.2125 52.9924 40.8657 57.2914 45.1447" stroke="#2E7D6A" stroke-width="2.5" stroke-linecap="round" stroke-linejoin="round" />
  </g>
</svg>
